solid STL generated by MeshLab
  facet normal  0.000000e+00 -0.000000e+00 -1.000000e+00
    outer loop
      vertex   170.000000 100.000000 0.000000
      vertex   170.000000 80.000000 0.000000
      vertex   150.000000 80.000000 0.000000
    endloop
  endfacet
  facet normal -0.000000e+00  0.000000e+00 -1.000000e+00
    outer loop
      vertex   170.000000 100.000000 0.000000
      vertex   150.000000 80.000000 0.000000
      vertex   150.000000 100.000000 0.000000
    endloop
  endfacet
  facet normal  0.000000e+00  0.000000e+00  1.000000e+00
    outer loop
      vertex   170.000000 100.000000 20.000000
      vertex   150.000000 100.000000 20.000000
      vertex   150.000000 80.000000 20.000000
    endloop
  endfacet
  facet normal  0.000000e+00  0.000000e+00  1.000000e+00
    outer loop
      vertex   170.000000 100.000000 20.000000
      vertex   150.000000 80.000000 20.000000
      vertex   170.000000 80.000000 20.000000
    endloop
  endfacet
  facet normal  1.000000e+00  0.000000e+00 -0.000000e+00
    outer loop
      vertex   170.000000 100.000000 0.000000
      vertex   170.000000 100.000000 20.000000
      vertex   170.000000 80.000000 20.000000
    endloop
  endfacet
  facet normal  1.000000e+00  0.000000e+00  0.000000e+00
    outer loop
      vertex   170.000000 100.000000 0.000000
      vertex   170.000000 80.000000 20.000000
      vertex   170.000000 80.000000 0.000000
    endloop
  endfacet
  facet normal  0.000000e+00 -1.000000e+00  0.000000e+00
    outer loop
      vertex   170.000000 80.000000 0.000000
      vertex   170.000000 80.000000 20.000000
      vertex   150.000000 80.000000 20.000000
    endloop
  endfacet
  facet normal  0.000000e+00 -1.000000e+00  0.000000e+00
    outer loop
      vertex   170.000000 80.000000 0.000000
      vertex   150.000000 80.000000 20.000000
      vertex   150.000000 80.000000 0.000000
    endloop
  endfacet
  facet normal -1.000000e+00  0.000000e+00  0.000000e+00
    outer loop
      vertex   150.000000 80.000000 0.000000
      vertex   150.000000 80.000000 20.000000
      vertex   150.000000 100.000000 20.000000
    endloop
  endfacet
  facet normal -1.000000e+00  0.000000e+00  0.000000e+00
    outer loop
      vertex   150.000000 80.000000 0.000000
      vertex   150.000000 100.000000 20.000000
      vertex   150.000000 100.000000 0.000000
    endloop
  endfacet
  facet normal  0.000000e+00  1.000000e+00  0.000000e+00
    outer loop
      vertex   170.000000 100.000000 20.000000
      vertex   170.000000 100.000000 0.000000
      vertex   150.000000 100.000000 0.000000
    endloop
  endfacet
  facet normal  0.000000e+00  1.000000e+00  0.000000e+00
    outer loop
      vertex   170.000000 100.000000 20.000000
      vertex   150.000000 100.000000 0.000000
      vertex   150.000000 100.000000 20.000000
    endloop
  endfacet
endsolid
