solid STL generated by MeshLab
  facet normal  0.000000e+00 -0.000000e+00 -1.000000e+00
    outer loop
      vertex   0.787402 0.787402 0.000000
      vertex   0.787402 0.000000 0.000000
      vertex   0.000000 0.000000 0.000000
    endloop
  endfacet
  facet normal -0.000000e+00  0.000000e+00 -1.000000e+00
    outer loop
      vertex   0.787402 0.787402 0.000000
      vertex   0.000000 0.000000 0.000000
      vertex   0.000000 0.787402 0.000000
    endloop
  endfacet
  facet normal  0.000000e+00  0.000000e+00  1.000000e+00
    outer loop
      vertex   0.787402 0.787402 0.787402
      vertex   0.000000 0.787402 0.787402
      vertex   0.000000 0.000000 0.787402
    endloop
  endfacet
  facet normal  0.000000e+00  0.000000e+00  1.000000e+00
    outer loop
      vertex   0.787402 0.787402 0.787402
      vertex   0.000000 0.000000 0.787402
      vertex   0.787402 0.000000 0.787402
    endloop
  endfacet
  facet normal  1.000000e+00  0.000000e+00 -0.000000e+00
    outer loop
      vertex   0.787402 0.787402 0.000000
      vertex   0.787402 0.787402 0.787402
      vertex   0.787402 0.000000 0.787402
    endloop
  endfacet
  facet normal  1.000000e+00  0.000000e+00  0.000000e+00
    outer loop
      vertex   0.787402 0.787402 0.000000
      vertex   0.787402 0.000000 0.787402
      vertex   0.787402 0.000000 0.000000
    endloop
  endfacet
  facet normal  0.000000e+00 -1.000000e+00  0.000000e+00
    outer loop
      vertex   0.787402 0.000000 0.000000
      vertex   0.787402 0.000000 0.787402
      vertex   0.000000 0.000000 0.787402
    endloop
  endfacet
  facet normal  0.000000e+00 -1.000000e+00  0.000000e+00
    outer loop
      vertex   0.787402 0.000000 0.000000
      vertex   0.000000 0.000000 0.787402
      vertex   0.000000 0.000000 0.000000
    endloop
  endfacet
  facet normal -1.000000e+00  0.000000e+00  0.000000e+00
    outer loop
      vertex   0.000000 0.000000 0.000000
      vertex   0.000000 0.000000 0.787402
      vertex   0.000000 0.787402 0.787402
    endloop
  endfacet
  facet normal -1.000000e+00  0.000000e+00  0.000000e+00
    outer loop
      vertex   0.000000 0.000000 0.000000
      vertex   0.000000 0.787402 0.787402
      vertex   0.000000 0.787402 0.000000
    endloop
  endfacet
  facet normal  0.000000e+00  1.000000e+00  0.000000e+00
    outer loop
      vertex   0.787402 0.787402 0.787402
      vertex   0.787402 0.787402 0.000000
      vertex   0.000000 0.787402 0.000000
    endloop
  endfacet
  facet normal  0.000000e+00  1.000000e+00  0.000000e+00
    outer loop
      vertex   0.787402 0.787402 0.787402
      vertex   0.000000 0.787402 0.000000
      vertex   0.000000 0.787402 0.787402
    endloop
  endfacet
endsolid
